<svg width="1236" height="556" viewBox="0 0 1236 556" fill="none" xmlns="http://www.w3.org/2000/svg">
<path d="M912.515 38.4978C921.143 43.4795 924.1 54.5125 919.118 63.1409L785.009 295.425C775.781 311.409 793.668 329.296 809.652 320.068L1172.77 110.425C1181.39 105.443 1192.43 108.399 1197.41 117.028L1233.49 179.52C1238.47 188.148 1235.51 199.181 1226.89 204.163L863.669 413.866C847.685 423.095 854.232 447.53 872.689 447.53H1141.05C1151.01 447.53 1159.09 455.606 1159.09 465.57V537.73C1159.09 547.693 1151.01 555.77 1141.05 555.77H761.684C756.899 555.77 752.311 553.869 748.928 550.486L627.215 428.773C620.17 421.728 608.747 421.728 601.702 428.773L479.989 550.486C476.606 553.869 472.018 555.77 467.233 555.77H94.8637C84.9005 555.77 76.8237 547.693 76.8237 537.73V465.57C76.8237 455.606 84.9005 447.53 94.8637 447.53H363.22C381.677 447.53 388.224 423.095 372.24 413.866L9.02302 204.163C0.394604 199.181 -2.56171 188.148 2.41994 179.52L38.5 117.028C43.4816 108.399 54.5147 105.443 63.143 110.425L426.256 320.067C442.24 329.295 460.127 311.408 450.899 295.424L316.79 63.141C311.808 54.5126 314.765 43.4795 323.393 38.4979L385.886 2.4177C394.515 -2.56389 405.548 0.392438 410.529 9.02084L602.331 341.231C609.274 353.258 626.633 353.258 633.577 341.231L825.38 9.02081C830.361 0.392424 841.395 -2.56385 850.023 2.41778L912.515 38.4978Z" fill="url(#paint0_linear_53_420)"/>
<defs>
<linearGradient id="paint0_linear_53_420" x1="617.955" y1="94" x2="617.955" y2="556" gradientUnits="userSpaceOnUse">
<stop stop-color="#FF4E08"/>
<stop offset="0.971154" stop-color="#E6E5C7"/>
</linearGradient>
</defs>
</svg>
