<svg width="1266" height="265" viewBox="0 0 1266 265" fill="none" xmlns="http://www.w3.org/2000/svg">
<path d="M49.3852 94.1847C55.7348 84.778 64.436 77.135 75.4889 71.2558C86.7769 65.3766 99.5936 62.437 113.939 62.437C130.636 62.437 145.686 66.5525 159.091 74.7834C172.731 83.0142 183.431 94.7726 191.191 110.059C199.187 125.109 203.185 142.629 203.185 162.619C203.185 182.608 199.187 200.363 191.191 215.884C183.431 231.17 172.731 243.046 159.091 251.512C145.686 259.978 130.636 264.211 113.939 264.211C99.3584 264.211 86.5418 261.389 75.4889 255.745C64.6712 249.866 55.9699 242.34 49.3852 233.169V261.036H0V0H49.3852V94.1847ZM152.742 162.619C152.742 150.86 150.272 140.748 145.334 132.282C140.63 123.581 134.281 116.996 126.285 112.528C118.525 108.06 110.059 105.826 100.887 105.826C91.9506 105.826 83.4846 108.177 75.4889 112.881C67.7283 117.349 61.3788 123.933 56.4403 132.635C51.7369 141.336 49.3852 151.566 49.3852 163.324C49.3852 175.082 51.7369 185.312 56.4403 194.013C61.3788 202.715 67.7283 209.417 75.4889 214.12C83.4846 218.588 91.9506 220.823 100.887 220.823C110.059 220.823 118.525 218.471 126.285 213.768C134.281 209.064 140.63 202.362 145.334 193.661C150.272 184.959 152.742 174.612 152.742 162.619Z" fill="#FF4E08"/>
<path d="M219.575 162.619C219.575 142.864 223.455 125.344 231.216 110.059C239.212 94.7726 249.912 83.0142 263.316 74.7834C276.956 66.5525 292.124 62.437 308.821 62.437C323.402 62.437 336.101 65.3766 346.919 71.2558C357.971 77.135 366.79 84.5428 373.375 93.4792V65.6118H423.113V261.036H373.375V232.463C367.025 241.635 358.207 249.278 346.919 255.392C335.866 261.271 323.049 264.211 308.469 264.211C292.007 264.211 276.956 259.978 263.316 251.512C249.912 243.046 239.212 231.17 231.216 215.884C223.455 200.363 219.575 182.608 219.575 162.619ZM373.375 163.324C373.375 151.33 371.023 141.101 366.32 132.635C361.617 123.933 355.267 117.349 347.271 112.881C339.276 108.177 330.692 105.826 321.52 105.826C312.349 105.826 303.883 108.06 296.122 112.528C288.362 116.996 282.012 123.581 277.074 132.282C272.37 140.748 270.019 150.86 270.019 162.619C270.019 174.377 272.37 184.724 277.074 193.661C282.012 202.362 288.362 209.064 296.122 213.768C304.118 218.471 312.584 220.823 321.52 220.823C330.692 220.823 339.276 218.588 347.271 214.12C355.267 209.417 361.617 202.832 366.32 194.366C371.023 185.665 373.375 175.318 373.375 163.324Z" fill="#FF4E08"/>
<path d="M552.843 62.7898C576.125 62.7898 594.938 70.1976 609.284 85.0132C623.629 99.5936 630.801 120.053 630.801 146.392V261.036H581.416V153.094C581.416 137.573 577.536 125.697 569.775 117.466C562.015 109 551.432 104.767 538.028 104.767C524.388 104.767 513.57 109 505.575 117.466C497.814 125.697 493.934 137.573 493.934 153.094V261.036H444.549V65.6118H493.934V89.9517C500.518 81.4856 508.867 74.9009 518.979 70.1976C529.327 65.2591 540.615 62.7898 552.843 62.7898Z" fill="#FF4E08"/>
<path d="M713.465 106.178V200.716C713.465 207.3 714.994 212.121 718.051 215.179C721.343 218.001 726.752 219.412 734.277 219.412H757.206V261.036H726.164C684.539 261.036 663.727 240.812 663.727 200.363V106.178H640.445V65.6118H663.727V17.2848H713.465V65.6118H757.206V106.178H713.465Z" fill="#FF4E08"/>
<path d="M764.23 162.619C764.23 142.864 768.11 125.344 775.871 110.059C783.867 94.7726 794.567 83.0142 807.971 74.7834C821.611 66.5525 836.779 62.437 853.476 62.437C868.057 62.437 880.756 65.3766 891.573 71.2558C902.626 77.135 911.445 84.5428 918.03 93.4792V65.6118H967.768V261.036H918.03V232.463C911.68 241.635 902.861 249.278 891.573 255.392C880.52 261.271 867.704 264.211 853.123 264.211C836.662 264.211 821.611 259.978 807.971 251.512C794.567 243.046 783.867 231.17 775.871 215.884C768.11 200.363 764.23 182.608 764.23 162.619ZM918.03 163.324C918.03 151.33 915.678 141.101 910.975 132.635C906.271 123.933 899.922 117.349 891.926 112.881C883.93 108.177 875.347 105.826 866.175 105.826C857.004 105.826 848.538 108.06 840.777 112.528C833.017 116.996 826.667 123.581 821.728 132.282C817.025 140.748 814.673 150.86 814.673 162.619C814.673 174.377 817.025 184.724 821.728 193.661C826.667 202.362 833.017 209.064 840.777 213.768C848.773 218.471 857.239 220.823 866.175 220.823C875.347 220.823 883.93 218.588 891.926 214.12C899.922 209.417 906.271 202.832 910.975 194.366C915.678 185.665 918.03 175.318 918.03 163.324Z" fill="#FF4E08"/>
<path d="M1042.59 0V261.036H993.203V0H1042.59Z" fill="#FF4E08"/>
<path d="M1061.88 162.619C1061.88 142.864 1065.76 125.344 1073.53 110.059C1081.52 94.7726 1092.22 83.0142 1105.63 74.7834C1119.27 66.5525 1134.43 62.437 1151.13 62.437C1165.71 62.437 1178.41 65.3766 1189.23 71.2558C1200.28 77.135 1209.1 84.5428 1215.68 93.4792V65.6118H1265.42V261.036H1215.68V232.463C1209.33 241.635 1200.52 249.278 1189.23 255.392C1178.17 261.271 1165.36 264.211 1150.78 264.211C1134.32 264.211 1119.27 259.978 1105.63 251.512C1092.22 243.046 1081.52 231.17 1073.53 215.884C1065.76 200.363 1061.88 182.608 1061.88 162.619ZM1215.68 163.324C1215.68 151.33 1213.33 141.101 1208.63 132.635C1203.93 123.933 1197.58 117.349 1189.58 112.881C1181.58 108.177 1173 105.826 1163.83 105.826C1154.66 105.826 1146.19 108.06 1138.43 112.528C1130.67 116.996 1124.32 123.581 1119.38 132.282C1114.68 140.748 1112.33 150.86 1112.33 162.619C1112.33 174.377 1114.68 184.724 1119.38 193.661C1124.32 202.362 1130.67 209.064 1138.43 213.768C1146.43 218.471 1154.89 220.823 1163.83 220.823C1173 220.823 1181.58 218.588 1189.58 214.12C1197.58 209.417 1203.93 202.832 1208.63 194.366C1213.33 185.665 1215.68 175.318 1215.68 163.324Z" fill="#FF4E08"/>
</svg>
