<svg width="1153" height="564" viewBox="0 0 1153 564" fill="none" xmlns="http://www.w3.org/2000/svg">
<path d="M61.1912 392.032C66.8352 382.86 74.9485 375.453 85.531 369.809C96.1136 364.165 108.225 361.343 121.864 361.343C138.091 361.343 152.789 365.458 165.958 373.689C179.128 381.92 189.475 393.678 197.001 408.964C204.761 424.25 208.641 442.005 208.641 462.23C208.641 482.454 204.761 500.327 197.001 515.848C189.475 531.134 179.128 543.01 165.958 551.476C152.789 559.707 138.091 563.822 121.864 563.822C107.99 563.822 95.8784 561.118 85.531 555.709C75.1836 550.065 67.0704 542.657 61.1912 533.485V561H0.870605V299.964H61.1912V392.032ZM147.263 462.23C147.263 447.179 143.03 435.42 134.564 426.954C126.333 418.253 116.103 413.903 103.874 413.903C91.8805 413.903 81.6507 418.253 73.1847 426.954C64.9538 435.656 60.8384 447.532 60.8384 462.582C60.8384 477.633 64.9538 489.509 73.1847 498.21C81.6507 506.911 91.8805 511.262 103.874 511.262C115.868 511.262 126.097 506.911 134.564 498.21C143.03 489.274 147.263 477.28 147.263 462.23Z" fill="#E6E5C7"/>
<path d="M417.856 364.165V561H357.535V534.191C351.421 542.892 343.072 549.947 332.49 555.356C322.142 560.53 310.619 563.117 297.92 563.117C282.869 563.117 269.582 559.824 258.059 553.239C246.536 546.42 237.599 536.66 231.25 523.961C224.9 511.262 221.726 496.329 221.726 479.162V364.165H281.693V471.048C281.693 484.218 285.103 494.448 291.923 501.738C298.743 509.028 307.915 512.673 319.438 512.673C331.196 512.673 340.485 509.028 347.305 501.738C354.125 494.448 357.535 484.218 357.535 471.048V364.165H417.856Z" fill="#E6E5C7"/>
<path d="M504.706 299.964V561H444.386V299.964H504.706Z" fill="#E6E5C7"/>
<path d="M651.91 561L591.943 478.456V561H531.622V299.964H591.943V444.239L651.558 364.165H725.988L644.15 462.935L726.694 561H651.91Z" fill="#E6E5C7"/>
<path d="M720.889 462.23C720.889 442.005 724.652 424.25 732.177 408.964C739.938 393.678 750.403 381.92 763.572 373.689C776.742 365.458 791.44 361.343 807.666 361.343C821.541 361.343 833.652 364.165 844 369.809C854.582 375.453 862.695 382.86 868.34 392.032V364.165H928.66V561H868.34V533.133C862.46 542.304 854.229 549.712 843.647 555.356C833.299 561 821.188 563.822 807.313 563.822C791.322 563.822 776.742 559.707 763.572 551.476C750.403 543.01 739.938 531.134 732.177 515.848C724.652 500.327 720.889 482.454 720.889 462.23ZM868.34 462.582C868.34 447.532 864.107 435.656 855.641 426.954C847.41 418.253 837.297 413.903 825.304 413.903C813.31 413.903 803.081 418.253 794.614 426.954C786.384 435.42 782.268 447.179 782.268 462.23C782.268 477.28 786.384 489.274 794.614 498.21C803.081 506.911 813.31 511.262 825.304 511.262C837.297 511.262 847.41 506.911 855.641 498.21C864.107 489.509 868.34 477.633 868.34 462.582Z" fill="#E6E5C7"/>
<path d="M1075.44 362.048C1098.48 362.048 1116.83 369.573 1130.47 384.624C1144.34 399.44 1151.28 419.899 1151.28 446.003V561H1091.31V454.116C1091.31 440.947 1087.9 430.717 1081.08 423.427C1074.26 416.137 1065.09 412.492 1053.57 412.492C1042.04 412.492 1032.87 416.137 1026.05 423.427C1019.23 430.717 1015.82 440.947 1015.82 454.116V561H955.502V364.165H1015.82V390.268C1021.94 381.567 1030.17 374.747 1040.51 369.809C1050.86 364.635 1062.5 362.048 1075.44 362.048Z" fill="#E6E5C7"/>
<path d="M1059.66 224.35L1119.63 67.7285H1152.79L1042.13 338H1008.97L1041.32 258.92L963.361 67.7285H998.989L1059.66 224.35ZM33.1006 103.709C39.6853 92.1858 49.3273 82.7794 62.0264 75.4893C74.7253 68.1992 89.1877 64.5538 105.414 64.5537C122.816 64.5537 138.455 68.6687 152.33 76.8994C166.205 85.1303 177.141 96.7715 185.137 111.822C193.132 126.638 197.13 143.923 197.13 163.677C197.13 183.196 193.132 200.598 185.137 215.884C177.141 231.17 166.088 243.046 151.978 251.512C138.103 259.978 122.581 264.211 105.414 264.211C88.7173 264.211 74.0193 260.566 61.3203 253.275C48.8566 245.985 39.4501 236.696 33.1006 225.408V261.036H1V0H33.1006V103.709ZM302.308 64.5537C319.24 64.5538 333.938 68.1991 346.401 75.4893C358.865 82.7794 368.154 91.9511 374.269 103.004V67.7285H406.722V261.036H374.269V225.056C367.919 236.344 358.394 245.75 345.695 253.275C333.231 260.566 318.651 264.211 301.954 264.211C284.787 264.211 269.266 259.978 255.392 251.512C241.517 243.046 230.581 231.17 222.585 215.884C214.589 200.598 210.592 183.196 210.592 163.677C210.592 143.923 214.589 126.638 222.585 111.822C230.581 96.7715 241.517 85.1303 255.392 76.8994C269.502 68.6687 285.141 64.5537 302.308 64.5537ZM844.427 64.5537C861.359 64.5537 876.057 68.1991 888.521 75.4893C900.984 82.7795 910.273 91.951 916.388 103.004V67.7285H948.841V261.036H916.388V225.056C910.038 236.344 900.514 245.75 887.815 253.275C875.352 260.566 860.771 264.211 844.074 264.211C826.907 264.211 811.386 259.978 797.511 251.512C783.636 243.046 772.701 231.17 764.705 215.884C756.709 200.598 752.711 183.196 752.711 163.677C752.711 143.923 756.709 126.638 764.705 111.822C772.701 96.7716 783.636 85.1303 797.511 76.8994C811.621 68.6686 827.26 64.5537 844.427 64.5537ZM538.355 64.2012C561.872 64.2012 580.921 71.3736 595.501 85.7188C610.081 99.8288 617.372 120.289 617.372 147.098V261.036H585.624V151.684C585.624 132.4 580.803 117.701 571.161 107.589C561.519 97.2417 548.35 92.0684 531.653 92.0684C514.721 92.0684 501.199 97.3598 491.087 107.942C481.21 118.525 476.272 133.928 476.271 154.152V261.036H444.171V67.7285H476.271V95.2432C482.621 85.3663 491.204 77.7233 502.021 72.3145C513.074 66.9056 525.186 64.2012 538.355 64.2012ZM692.165 67.7285H742.609V94.1846H692.165V208.123C692.165 217.53 694.164 224.233 698.162 228.23C702.16 231.993 709.098 233.874 718.975 233.874H742.609V261.036H713.684C695.811 261.036 682.406 256.921 673.47 248.69C664.533 240.46 660.065 226.936 660.065 208.123V94.1846H635.02V67.7285H660.065V19.0488H692.165V67.7285ZM98.7119 92.4209C86.9537 92.421 76.0183 95.3602 65.9062 101.239C56.0292 106.883 48.0333 115.232 41.9189 126.285C36.0398 137.103 33.1006 149.684 33.1006 164.029C33.1006 178.61 36.0398 191.427 41.9189 202.479C48.0333 213.297 56.0293 221.645 65.9062 227.524C76.0184 233.168 86.9536 235.991 98.7119 235.991C110.705 235.991 121.642 233.168 131.519 227.524C141.63 221.645 149.626 213.297 155.505 202.479C161.384 191.427 164.324 178.492 164.324 163.677C164.324 149.096 161.384 136.398 155.505 125.58C149.626 114.762 141.631 106.531 131.519 100.887C121.642 95.2427 110.705 92.4209 98.7119 92.4209ZM308.656 92.4209C296.663 92.421 285.728 95.2428 275.851 100.887C265.974 106.531 258.096 114.762 252.217 125.58C246.338 136.398 243.397 149.096 243.397 163.677C243.397 178.492 246.338 191.427 252.217 202.479C258.096 213.297 265.974 221.645 275.851 227.524C285.728 233.168 296.663 235.991 308.656 235.991C320.65 235.991 331.586 233.168 341.463 227.524C351.575 221.645 359.571 213.297 365.45 202.479C371.329 191.427 374.269 178.61 374.269 164.029C374.269 149.449 371.329 136.75 365.45 125.933C359.571 115.115 351.575 106.883 341.463 101.239C331.586 95.3601 320.65 92.4209 308.656 92.4209ZM850.776 92.4209C838.783 92.4209 827.848 95.2428 817.971 100.887C808.094 106.531 800.215 114.762 794.336 125.58C788.457 136.398 785.518 149.097 785.518 163.677C785.518 178.492 788.457 191.427 794.336 202.479C800.215 213.297 808.094 221.645 817.971 227.524C827.848 233.168 838.783 235.991 850.776 235.991C862.77 235.991 873.705 233.168 883.582 227.524C893.694 221.645 901.69 213.297 907.569 202.479C913.449 191.427 916.388 178.61 916.388 164.029C916.388 149.449 913.448 136.75 907.569 125.933C901.69 115.115 893.694 106.883 883.582 101.239C873.705 95.3602 862.77 92.4209 850.776 92.4209Z" fill="#FF4E08"/>
</svg>
